<svg xmlns="http://www.w3.org/2000/svg" viewBox="0 0 64 64" role="img" aria-labelledby="title">
  <title>the-sfm trader mark</title>
  <defs>
    <linearGradient id="gold" x1="12" y1="8" x2="54" y2="56" gradientUnits="userSpaceOnUse">
      <stop offset="0" stop-color="#ffe59d"/>
      <stop offset=".48" stop-color="#d9a94c"/>
      <stop offset="1" stop-color="#8d6422"/>
    </linearGradient>
    <linearGradient id="aqua" x1="10" y1="18" x2="56" y2="48" gradientUnits="userSpaceOnUse">
      <stop offset="0" stop-color="#1e8cff"/>
      <stop offset=".52" stop-color="#24d2b4"/>
      <stop offset="1" stop-color="#ffd56f"/>
    </linearGradient>
    <filter id="glow" x="-40%" y="-40%" width="180%" height="180%">
      <feGaussianBlur stdDeviation="1.8" result="blur"/>
      <feColorMatrix in="blur" type="matrix" values="0 0 0 0 0.15 0 0 0 0 0.83 0 0 0 0 0.72 0 0 0 .65 0"/>
      <feMerge>
        <feMergeNode/>
        <feMergeNode in="SourceGraphic"/>
      </feMerge>
    </filter>
  </defs>
  <rect x="5.5" y="5.5" width="53" height="53" rx="13" fill="#061017" stroke="url(#gold)" stroke-width="2"/>
  <path d="M19 43V32M27 43V25M35 43V19" stroke="url(#gold)" stroke-width="3.8" stroke-linecap="round"/>
  <path d="M18.5 44.5c8.2 8.4 22.7 7.5 29.4-1.9 5.3-7.4 4.6-18.6-1.9-25.1" fill="none" stroke="url(#aqua)" stroke-width="3.3" stroke-linecap="round" filter="url(#glow)"/>
  <path d="M44.7 18.3c-5.4-5.5-14.7-6.5-21.7-2.1-8.5 5.3-11.2 16.5-6.4 25.5" fill="none" stroke="url(#gold)" stroke-width="2.9" stroke-linecap="round"/>
  <path d="M42.4 18.6l.2 9.8 8-5.2" fill="none" stroke="url(#gold)" stroke-width="3" stroke-linecap="round" stroke-linejoin="round"/>
</svg>
